<svg xmlns="http://www.w3.org/2000/svg" xmlns:xlink="http://www.w3.org/1999/xlink" id="visual" viewBox="0 0 430 64" width="430" height="64" version="1.1"><rect x="0" y="0" width="430" height="64" fill="#001220"/><path d="M0 27L18 26.3C36 25.7 72 24.3 107.8 24C143.7 23.7 179.3 24.3 215.2 25.3C251 26.3 287 27.7 322.8 27.3C358.7 27 394.3 25 412.2 24L430 23L430 0L412.2 0C394.3 0 358.7 0 322.8 0C287 0 251 0 215.2 0C179.3 0 143.7 0 107.8 0C72 0 36 0 18 0L0 0Z" fill="#030836"/><path d="M0 20L18 19.2C36 18.3 72 16.7 107.8 16.8C143.7 17 179.3 19 215.2 18.8C251 18.7 287 16.3 322.8 15C358.7 13.7 394.3 13.3 412.2 13.2L430 13L430 0L412.2 0C394.3 0 358.7 0 322.8 0C287 0 251 0 215.2 0C179.3 0 143.7 0 107.8 0C72 0 36 0 18 0L0 0Z" fill="#060d47"/><path d="M0 5L18 5.7C36 6.3 72 7.7 107.8 8.2C143.7 8.7 179.3 8.3 215.2 8.7C251 9 287 10 322.8 9.7C358.7 9.3 394.3 7.7 412.2 6.8L430 6L430 0L412.2 0C394.3 0 358.7 0 322.8 0C287 0 251 0 215.2 0C179.3 0 143.7 0 107.8 0C72 0 36 0 18 0L0 0Z" fill="#160c57"/></svg>