<svg xmlns="http://www.w3.org/2000/svg" version="1.1" xmlns:xlink="http://www.w3.org/1999/xlink" xmlns:svgjs="http://svgjs.dev/svgjs" width="1440" height="560" preserveAspectRatio="none" viewBox="0 0 1440 560">
    <g mask="url(&quot;#SvgjsMask1117&quot;)" fill="none">
        <rect width="1440" height="560" x="0" y="0" fill="#0e2a47"></rect>
        <path d="M15.61 -66.03L80.56 -28.53L80.56 46.47L15.61 83.97L-49.34 46.47L-49.34 -28.53zM80.56 46.47L145.52 83.97L145.52 158.97L80.56 196.47L15.61 158.97L15.61 83.97zM15.61 158.97L80.56 196.47L80.56 271.47L15.61 308.97L-49.34 271.47L-49.34 196.47zM15.61 383.97L80.56 421.47L80.56 496.47L15.61 533.97L-49.34 496.47L-49.34 421.47zM145.52 -66.03L210.47 -28.53L210.47 46.47L145.52 83.97L80.56 46.47L80.56 -28.53zM275.43 158.97L340.38 196.47L340.38 271.47L275.43 308.97L210.47 271.47L210.47 196.47zM340.38 496.47L405.33 533.97L405.33 608.97L340.38 646.47L275.43 608.97L275.43 533.97zM470.29 496.47L535.24 533.97L535.24 608.97L470.29 646.47L405.33 608.97L405.33 533.97zM535.24 -66.03L600.19 -28.53L600.19 46.47L535.24 83.97L470.29 46.47L470.29 -28.53zM665.15 158.97L730.1 196.47L730.1 271.47L665.15 308.97L600.19 271.47L600.19 196.47zM730.1 496.47L795.06 533.97L795.06 608.97L730.1 646.47L665.15 608.97L665.15 533.97zM795.05 383.97L860.01 421.47L860.01 496.47L795.05 533.97L730.1 496.47L730.1 421.47zM860.01 496.47L924.96 533.97L924.96 608.97L860.01 646.47L795.05 608.97L795.05 533.97zM924.96 158.97L989.92 196.47L989.92 271.47L924.96 308.97L860.01 271.47L860.01 196.47zM1054.87 -66.03L1119.82 -28.53L1119.82 46.47L1054.87 83.97L989.92 46.47L989.92 -28.53zM1119.82 46.47L1184.78 83.97L1184.78 158.97L1119.82 196.47L1054.87 158.97L1054.87 83.97zM1054.87 158.97L1119.82 196.47L1119.82 271.47L1054.87 308.97L989.92 271.47L989.92 196.47zM1119.82 496.47L1184.78 533.97L1184.78 608.97L1119.82 646.47L1054.87 608.97L1054.87 533.97zM1249.73 271.47L1314.68 308.97L1314.68 383.97L1249.73 421.47L1184.78 383.97L1184.78 308.97zM1184.78 383.97L1249.73 421.47L1249.73 496.47L1184.78 533.97L1119.82 496.47L1119.82 421.47zM1314.68 -66.03L1379.64 -28.53L1379.64 46.47L1314.68 83.97L1249.73 46.47L1249.73 -28.53zM1314.68 158.97L1379.64 196.47L1379.64 271.47L1314.68 308.97L1249.73 271.47L1249.73 196.47zM1379.64 271.47L1444.59 308.97L1444.59 383.97L1379.64 421.47L1314.68 383.97L1314.68 308.97zM1379.64 496.47L1444.59 533.97L1444.59 608.97L1379.64 646.47L1314.68 608.97L1314.68 533.97zM1509.55 271.47L1574.5 308.97L1574.5 383.97L1509.55 421.47L1444.59 383.97L1444.59 308.97z" stroke="#03305d" stroke-width="2"></path>
        <path d="M8.11 -66.03 a7.5 7.5 0 1 0 15 0 a7.5 7.5 0 1 0 -15 0zM73.06 -28.53 a7.5 7.5 0 1 0 15 0 a7.5 7.5 0 1 0 -15 0zM73.06 46.47 a7.5 7.5 0 1 0 15 0 a7.5 7.5 0 1 0 -15 0zM8.11 83.97 a7.5 7.5 0 1 0 15 0 a7.5 7.5 0 1 0 -15 0zM-56.84 46.47 a7.5 7.5 0 1 0 15 0 a7.5 7.5 0 1 0 -15 0zM-56.84 -28.53 a7.5 7.5 0 1 0 15 0 a7.5 7.5 0 1 0 -15 0zM138.02 83.97 a7.5 7.5 0 1 0 15 0 a7.5 7.5 0 1 0 -15 0zM138.02 158.97 a7.5 7.5 0 1 0 15 0 a7.5 7.5 0 1 0 -15 0zM73.06 196.47 a7.5 7.5 0 1 0 15 0 a7.5 7.5 0 1 0 -15 0zM8.11 158.97 a7.5 7.5 0 1 0 15 0 a7.5 7.5 0 1 0 -15 0zM73.06 271.47 a7.5 7.5 0 1 0 15 0 a7.5 7.5 0 1 0 -15 0zM8.11 308.97 a7.5 7.5 0 1 0 15 0 a7.5 7.5 0 1 0 -15 0zM-56.84 271.47 a7.5 7.5 0 1 0 15 0 a7.5 7.5 0 1 0 -15 0zM-56.84 196.47 a7.5 7.5 0 1 0 15 0 a7.5 7.5 0 1 0 -15 0zM8.11 383.97 a7.5 7.5 0 1 0 15 0 a7.5 7.5 0 1 0 -15 0zM73.06 421.47 a7.5 7.5 0 1 0 15 0 a7.5 7.5 0 1 0 -15 0zM73.06 496.47 a7.5 7.5 0 1 0 15 0 a7.5 7.5 0 1 0 -15 0zM8.11 533.97 a7.5 7.5 0 1 0 15 0 a7.5 7.5 0 1 0 -15 0zM-56.84 496.47 a7.5 7.5 0 1 0 15 0 a7.5 7.5 0 1 0 -15 0zM-56.84 421.47 a7.5 7.5 0 1 0 15 0 a7.5 7.5 0 1 0 -15 0zM138.02 -66.03 a7.5 7.5 0 1 0 15 0 a7.5 7.5 0 1 0 -15 0zM202.97 -28.53 a7.5 7.5 0 1 0 15 0 a7.5 7.5 0 1 0 -15 0zM202.97 46.47 a7.5 7.5 0 1 0 15 0 a7.5 7.5 0 1 0 -15 0zM267.93 158.97 a7.5 7.5 0 1 0 15 0 a7.5 7.5 0 1 0 -15 0zM332.88 196.47 a7.5 7.5 0 1 0 15 0 a7.5 7.5 0 1 0 -15 0zM332.88 271.47 a7.5 7.5 0 1 0 15 0 a7.5 7.5 0 1 0 -15 0zM267.93 308.97 a7.5 7.5 0 1 0 15 0 a7.5 7.5 0 1 0 -15 0zM202.97 271.47 a7.5 7.5 0 1 0 15 0 a7.5 7.5 0 1 0 -15 0zM202.97 196.47 a7.5 7.5 0 1 0 15 0 a7.5 7.5 0 1 0 -15 0zM332.88 496.47 a7.5 7.5 0 1 0 15 0 a7.5 7.5 0 1 0 -15 0zM397.83 533.97 a7.5 7.5 0 1 0 15 0 a7.5 7.5 0 1 0 -15 0zM397.83 608.97 a7.5 7.5 0 1 0 15 0 a7.5 7.5 0 1 0 -15 0zM332.88 646.47 a7.5 7.5 0 1 0 15 0 a7.5 7.5 0 1 0 -15 0zM267.93 608.97 a7.5 7.5 0 1 0 15 0 a7.5 7.5 0 1 0 -15 0zM267.93 533.97 a7.5 7.5 0 1 0 15 0 a7.5 7.5 0 1 0 -15 0zM462.79 496.47 a7.5 7.5 0 1 0 15 0 a7.5 7.5 0 1 0 -15 0zM527.74 533.97 a7.5 7.5 0 1 0 15 0 a7.5 7.5 0 1 0 -15 0zM527.74 608.97 a7.5 7.5 0 1 0 15 0 a7.5 7.5 0 1 0 -15 0zM462.79 646.47 a7.5 7.5 0 1 0 15 0 a7.5 7.5 0 1 0 -15 0zM527.74 -66.03 a7.5 7.5 0 1 0 15 0 a7.5 7.5 0 1 0 -15 0zM592.69 -28.53 a7.5 7.5 0 1 0 15 0 a7.5 7.5 0 1 0 -15 0zM592.69 46.47 a7.5 7.5 0 1 0 15 0 a7.5 7.5 0 1 0 -15 0zM527.74 83.97 a7.5 7.5 0 1 0 15 0 a7.5 7.5 0 1 0 -15 0zM462.79 46.47 a7.5 7.5 0 1 0 15 0 a7.5 7.5 0 1 0 -15 0zM462.79 -28.53 a7.5 7.5 0 1 0 15 0 a7.5 7.5 0 1 0 -15 0zM657.65 158.97 a7.5 7.5 0 1 0 15 0 a7.5 7.5 0 1 0 -15 0zM722.6 196.47 a7.5 7.5 0 1 0 15 0 a7.5 7.5 0 1 0 -15 0zM722.6 271.47 a7.5 7.5 0 1 0 15 0 a7.5 7.5 0 1 0 -15 0zM657.65 308.97 a7.5 7.5 0 1 0 15 0 a7.5 7.5 0 1 0 -15 0zM592.69 271.47 a7.5 7.5 0 1 0 15 0 a7.5 7.5 0 1 0 -15 0zM592.69 196.47 a7.5 7.5 0 1 0 15 0 a7.5 7.5 0 1 0 -15 0zM722.6 496.47 a7.5 7.5 0 1 0 15 0 a7.5 7.5 0 1 0 -15 0zM787.56 533.97 a7.5 7.5 0 1 0 15 0 a7.5 7.5 0 1 0 -15 0zM787.56 608.97 a7.5 7.5 0 1 0 15 0 a7.5 7.5 0 1 0 -15 0zM722.6 646.47 a7.5 7.5 0 1 0 15 0 a7.5 7.5 0 1 0 -15 0zM657.65 608.97 a7.5 7.5 0 1 0 15 0 a7.5 7.5 0 1 0 -15 0zM657.65 533.97 a7.5 7.5 0 1 0 15 0 a7.5 7.5 0 1 0 -15 0zM787.55 383.97 a7.5 7.5 0 1 0 15 0 a7.5 7.5 0 1 0 -15 0zM852.51 421.47 a7.5 7.5 0 1 0 15 0 a7.5 7.5 0 1 0 -15 0zM852.51 496.47 a7.5 7.5 0 1 0 15 0 a7.5 7.5 0 1 0 -15 0zM787.55 533.97 a7.5 7.5 0 1 0 15 0 a7.5 7.5 0 1 0 -15 0zM722.6 421.47 a7.5 7.5 0 1 0 15 0 a7.5 7.5 0 1 0 -15 0zM917.46 533.97 a7.5 7.5 0 1 0 15 0 a7.5 7.5 0 1 0 -15 0zM917.46 608.97 a7.5 7.5 0 1 0 15 0 a7.5 7.5 0 1 0 -15 0zM852.51 646.47 a7.5 7.5 0 1 0 15 0 a7.5 7.5 0 1 0 -15 0zM787.55 608.97 a7.5 7.5 0 1 0 15 0 a7.5 7.5 0 1 0 -15 0zM917.46 158.97 a7.5 7.5 0 1 0 15 0 a7.5 7.5 0 1 0 -15 0zM982.42 196.47 a7.5 7.5 0 1 0 15 0 a7.5 7.5 0 1 0 -15 0zM982.42 271.47 a7.5 7.5 0 1 0 15 0 a7.5 7.5 0 1 0 -15 0zM917.46 308.97 a7.5 7.5 0 1 0 15 0 a7.5 7.5 0 1 0 -15 0zM852.51 271.47 a7.5 7.5 0 1 0 15 0 a7.5 7.5 0 1 0 -15 0zM852.51 196.47 a7.5 7.5 0 1 0 15 0 a7.5 7.5 0 1 0 -15 0zM1047.37 -66.03 a7.5 7.5 0 1 0 15 0 a7.5 7.5 0 1 0 -15 0zM1112.32 -28.53 a7.5 7.5 0 1 0 15 0 a7.5 7.5 0 1 0 -15 0zM1112.32 46.47 a7.5 7.5 0 1 0 15 0 a7.5 7.5 0 1 0 -15 0zM1047.37 83.97 a7.5 7.5 0 1 0 15 0 a7.5 7.5 0 1 0 -15 0zM982.42 46.47 a7.5 7.5 0 1 0 15 0 a7.5 7.5 0 1 0 -15 0zM982.42 -28.53 a7.5 7.5 0 1 0 15 0 a7.5 7.5 0 1 0 -15 0zM1177.28 83.97 a7.5 7.5 0 1 0 15 0 a7.5 7.5 0 1 0 -15 0zM1177.28 158.97 a7.5 7.5 0 1 0 15 0 a7.5 7.5 0 1 0 -15 0zM1112.32 196.47 a7.5 7.5 0 1 0 15 0 a7.5 7.5 0 1 0 -15 0zM1047.37 158.97 a7.5 7.5 0 1 0 15 0 a7.5 7.5 0 1 0 -15 0zM1112.32 271.47 a7.5 7.5 0 1 0 15 0 a7.5 7.5 0 1 0 -15 0zM1047.37 308.97 a7.5 7.5 0 1 0 15 0 a7.5 7.5 0 1 0 -15 0zM1112.32 496.47 a7.5 7.5 0 1 0 15 0 a7.5 7.5 0 1 0 -15 0zM1177.28 533.97 a7.5 7.5 0 1 0 15 0 a7.5 7.5 0 1 0 -15 0zM1177.28 608.97 a7.5 7.5 0 1 0 15 0 a7.5 7.5 0 1 0 -15 0zM1112.32 646.47 a7.5 7.5 0 1 0 15 0 a7.5 7.5 0 1 0 -15 0zM1047.37 608.97 a7.5 7.5 0 1 0 15 0 a7.5 7.5 0 1 0 -15 0zM1047.37 533.97 a7.5 7.5 0 1 0 15 0 a7.5 7.5 0 1 0 -15 0zM1242.23 271.47 a7.5 7.5 0 1 0 15 0 a7.5 7.5 0 1 0 -15 0zM1307.18 308.97 a7.5 7.5 0 1 0 15 0 a7.5 7.5 0 1 0 -15 0zM1307.18 383.97 a7.5 7.5 0 1 0 15 0 a7.5 7.5 0 1 0 -15 0zM1242.23 421.47 a7.5 7.5 0 1 0 15 0 a7.5 7.5 0 1 0 -15 0zM1177.28 383.97 a7.5 7.5 0 1 0 15 0 a7.5 7.5 0 1 0 -15 0zM1177.28 308.97 a7.5 7.5 0 1 0 15 0 a7.5 7.5 0 1 0 -15 0zM1242.23 496.47 a7.5 7.5 0 1 0 15 0 a7.5 7.5 0 1 0 -15 0zM1112.32 421.47 a7.5 7.5 0 1 0 15 0 a7.5 7.5 0 1 0 -15 0zM1307.18 -66.03 a7.5 7.5 0 1 0 15 0 a7.5 7.5 0 1 0 -15 0zM1372.14 -28.53 a7.5 7.5 0 1 0 15 0 a7.5 7.5 0 1 0 -15 0zM1372.14 46.47 a7.5 7.5 0 1 0 15 0 a7.5 7.5 0 1 0 -15 0zM1307.18 83.97 a7.5 7.5 0 1 0 15 0 a7.5 7.5 0 1 0 -15 0zM1242.23 46.47 a7.5 7.5 0 1 0 15 0 a7.5 7.5 0 1 0 -15 0zM1242.23 -28.53 a7.5 7.5 0 1 0 15 0 a7.5 7.5 0 1 0 -15 0zM1307.18 158.97 a7.5 7.5 0 1 0 15 0 a7.5 7.5 0 1 0 -15 0zM1372.14 196.47 a7.5 7.5 0 1 0 15 0 a7.5 7.5 0 1 0 -15 0zM1372.14 271.47 a7.5 7.5 0 1 0 15 0 a7.5 7.5 0 1 0 -15 0zM1242.23 196.47 a7.5 7.5 0 1 0 15 0 a7.5 7.5 0 1 0 -15 0zM1437.09 308.97 a7.5 7.5 0 1 0 15 0 a7.5 7.5 0 1 0 -15 0zM1437.09 383.97 a7.5 7.5 0 1 0 15 0 a7.5 7.5 0 1 0 -15 0zM1372.14 421.47 a7.5 7.5 0 1 0 15 0 a7.5 7.5 0 1 0 -15 0zM1372.14 496.47 a7.5 7.5 0 1 0 15 0 a7.5 7.5 0 1 0 -15 0zM1437.09 533.97 a7.5 7.5 0 1 0 15 0 a7.5 7.5 0 1 0 -15 0zM1437.09 608.97 a7.5 7.5 0 1 0 15 0 a7.5 7.5 0 1 0 -15 0zM1372.14 646.47 a7.5 7.5 0 1 0 15 0 a7.5 7.5 0 1 0 -15 0zM1307.18 608.97 a7.5 7.5 0 1 0 15 0 a7.5 7.5 0 1 0 -15 0zM1307.18 533.97 a7.5 7.5 0 1 0 15 0 a7.5 7.5 0 1 0 -15 0zM1502.05 271.47 a7.5 7.5 0 1 0 15 0 a7.5 7.5 0 1 0 -15 0zM1567 308.97 a7.5 7.5 0 1 0 15 0 a7.5 7.5 0 1 0 -15 0zM1567 383.97 a7.5 7.5 0 1 0 15 0 a7.5 7.5 0 1 0 -15 0zM1502.05 421.47 a7.5 7.5 0 1 0 15 0 a7.5 7.5 0 1 0 -15 0z" fill="#03305d"></path>
        <path d="M114.82 417.08L168.51 448.08L168.51 510.08L114.82 541.08L61.12 510.08L61.12 448.08zM222.21 231.08L275.9 262.08L275.9 324.08L222.21 355.08L168.51 324.08L168.51 262.08zM275.9 510.08L329.6 541.08L329.6 603.08L275.9 634.08L222.21 603.08L222.21 541.08zM651.77 231.08L705.46 262.08L705.46 324.08L651.77 355.08L598.07 324.08L598.07 262.08zM651.77 417.08L705.46 448.08L705.46 510.08L651.77 541.08L598.07 510.08L598.07 448.08zM759.16 231.08L812.85 262.08L812.85 324.08L759.16 355.08L705.46 324.08L705.46 262.08zM812.85 138.08L866.55 169.08L866.55 231.08L812.85 262.08L759.16 231.08L759.16 169.08zM866.55 417.08L920.24 448.08L920.24 510.08L866.55 541.08L812.85 510.08L812.85 448.08zM973.94 231.08L1027.63 262.08L1027.63 324.08L973.94 355.08L920.24 324.08L920.24 262.08zM1027.63 510.08L1081.33 541.08L1081.33 603.08L1027.63 634.08L973.94 603.08L973.94 541.08zM1135.02 -47.92L1188.72 -16.92L1188.72 45.08L1135.02 76.08L1081.33 45.08L1081.33 -16.92zM1242.41 -47.92L1296.11 -16.92L1296.11 45.08L1242.41 76.08L1188.72 45.08L1188.72 -16.92zM1242.41 138.08L1296.11 169.08L1296.11 231.08L1242.41 262.08L1188.72 231.08L1188.72 169.08zM1403.5 45.08L1457.19 76.08L1457.19 138.08L1403.5 169.08L1349.8 138.08L1349.8 76.08zM1457.19 -47.92L1510.89 -16.92L1510.89 45.08L1457.19 76.08L1403.5 45.08L1403.5 -16.92z" stroke="rgba(0, 69, 158, 1)" stroke-width="2"></path>
    </g>
    <defs>
        <mask id="SvgjsMask1117">
            <rect width="1440" height="560" fill="#ffffff"></rect>
        </mask>
    </defs>
</svg>