<svg xmlns="http://www.w3.org/2000/svg" version="1.1" xmlns:xlink="http://www.w3.org/1999/xlink" xmlns:svgjs="http://svgjs.dev/svgjs" width="430" height="64" preserveAspectRatio="none" viewBox="0 0 430 64">
    <g mask="url(&quot;#SvgjsMask1090&quot;)" fill="none">
        <rect width="430" height="64" x="0" y="0" fill="#0e2a47"></rect>
        <path d="M-32.5 86.73L-32.5 86.73" stroke="#132e65" stroke-width="1.5"></path>
        <path d="M-32.5 86.73L-40.09 139.82" stroke="#132e65" stroke-width="1.5"></path>
        <path d="M-32.5 86.73L32.07 67.81" stroke="#132e65" stroke-width="1.5"></path>
        <path d="M-40.09 139.82L-40.09 139.82" stroke="#132e65" stroke-width="1.5"></path>
        <path d="M-40.09 139.82L31.2 133.85" stroke="#132e65" stroke-width="1.5"></path>
        <path d="M-40.09 139.82L32.07 67.81" stroke="#132e65" stroke-width="1.5"></path>
        <path d="M-40.09 139.82L78.15 136.09" stroke="#132e65" stroke-width="1.5"></path>
        <path d="M-40.09 139.82L68.81 93.22" stroke="#132e65" stroke-width="1.5"></path>
        <path d="M32.07 67.81L32.07 67.81" stroke="#132e65" stroke-width="1.5"></path>
        <path d="M32.07 67.81L68.81 93.22" stroke="#132e65" stroke-width="1.5"></path>
        <path d="M32.07 67.81L31.2 133.85" stroke="#132e65" stroke-width="1.5"></path>
        <path d="M32.07 67.81L78.15 136.09" stroke="#132e65" stroke-width="1.5"></path>
        <path d="M32.07 67.81L125.55 93.88" stroke="#132e65" stroke-width="1.5"></path>
        <path d="M31.2 133.85L31.2 133.85" stroke="#132e65" stroke-width="1.5"></path>
        <path d="M31.2 133.85L78.15 136.09" stroke="#132e65" stroke-width="1.5"></path>
        <path d="M31.2 133.85L68.81 93.22" stroke="#132e65" stroke-width="1.5"></path>
        <path d="M68.81 93.22L68.81 93.22" stroke="#132e65" stroke-width="1.5"></path>
        <path d="M68.81 93.22L78.15 136.09" stroke="#132e65" stroke-width="1.5"></path>
        <path d="M78.15 136.09L78.15 136.09" stroke="#132e65" stroke-width="1.5"></path>
        <path d="M78.15 136.09L128.64 132.81" stroke="#132e65" stroke-width="1.5"></path>
        <path d="M78.15 136.09L125.55 93.88" stroke="#132e65" stroke-width="1.5"></path>
        <path d="M78.15 136.09L180.75 137.75" stroke="#132e65" stroke-width="1.5"></path>
        <path d="M133.12 33.85L133.12 33.85" stroke="#132e65" stroke-width="1.5"></path>
        <path d="M133.12 33.85L176.4 69.28" stroke="#132e65" stroke-width="1.5"></path>
        <path d="M133.12 33.85L125.55 93.88" stroke="#132e65" stroke-width="1.5"></path>
        <path d="M125.55 93.88L125.55 93.88" stroke="#132e65" stroke-width="1.5"></path>
        <path d="M125.55 93.88L128.64 132.81" stroke="#132e65" stroke-width="1.5"></path>
        <path d="M125.55 93.88L176.4 69.28" stroke="#132e65" stroke-width="1.5"></path>
        <path d="M128.64 132.81L128.64 132.81" stroke="#132e65" stroke-width="1.5"></path>
        <path d="M128.64 132.81L180.75 137.75" stroke="#132e65" stroke-width="1.5"></path>
        <path d="M176.4 69.28L176.4 69.28" stroke="#132e65" stroke-width="1.5"></path>
        <path d="M176.4 69.28L236.02 83.87" stroke="#132e65" stroke-width="1.5"></path>
        <path d="M176.4 69.28L231.37 37.52" stroke="#132e65" stroke-width="1.5"></path>
        <path d="M176.4 69.28L180.75 137.75" stroke="#132e65" stroke-width="1.5"></path>
        <path d="M176.4 69.28L128.64 132.81" stroke="#132e65" stroke-width="1.5"></path>
        <path d="M180.75 137.75L180.75 137.75" stroke="#132e65" stroke-width="1.5"></path>
        <path d="M180.75 137.75L237.59 124.92" stroke="#132e65" stroke-width="1.5"></path>
        <path d="M180.75 137.75L125.55 93.88" stroke="#132e65" stroke-width="1.5"></path>
        <path d="M180.75 137.75L236.02 83.87" stroke="#132e65" stroke-width="1.5"></path>
        <path d="M231.37 37.52L231.37 37.52" stroke="#132e65" stroke-width="1.5"></path>
        <path d="M231.37 37.52L236.02 83.87" stroke="#132e65" stroke-width="1.5"></path>
        <path d="M231.37 37.52L285.15 29.03" stroke="#132e65" stroke-width="1.5"></path>
        <path d="M231.37 37.52L299.49 90.19" stroke="#132e65" stroke-width="1.5"></path>
        <path d="M231.37 37.52L237.59 124.92" stroke="#132e65" stroke-width="1.5"></path>
        <path d="M231.37 37.52L133.12 33.85" stroke="#132e65" stroke-width="1.5"></path>
        <path d="M236.02 83.87L236.02 83.87" stroke="#132e65" stroke-width="1.5"></path>
        <path d="M236.02 83.87L237.59 124.92" stroke="#132e65" stroke-width="1.5"></path>
        <path d="M236.02 83.87L299.49 90.19" stroke="#132e65" stroke-width="1.5"></path>
        <path d="M236.02 83.87L294.3 123.46" stroke="#132e65" stroke-width="1.5"></path>
        <path d="M237.59 124.92L237.59 124.92" stroke="#132e65" stroke-width="1.5"></path>
        <path d="M237.59 124.92L294.3 123.46" stroke="#132e65" stroke-width="1.5"></path>
        <path d="M237.59 124.92L299.49 90.19" stroke="#132e65" stroke-width="1.5"></path>
        <path d="M285.15 29.03L285.15 29.03" stroke="#132e65" stroke-width="1.5"></path>
        <path d="M285.15 29.03L299.49 90.19" stroke="#132e65" stroke-width="1.5"></path>
        <path d="M285.15 29.03L346.82 14.79" stroke="#132e65" stroke-width="1.5"></path>
        <path d="M299.49 90.19L299.49 90.19" stroke="#132e65" stroke-width="1.5"></path>
        <path d="M299.49 90.19L294.3 123.46" stroke="#132e65" stroke-width="1.5"></path>
        <path d="M294.3 123.46L294.3 123.46" stroke="#132e65" stroke-width="1.5"></path>
        <path d="M294.3 123.46L358.78 123.85" stroke="#132e65" stroke-width="1.5"></path>
        <path d="M349.73 -27.69L349.73 -27.69" stroke="#132e65" stroke-width="1.5"></path>
        <path d="M349.73 -27.69L346.82 14.79" stroke="#132e65" stroke-width="1.5"></path>
        <path d="M349.73 -27.69L392.27 -23.02" stroke="#132e65" stroke-width="1.5"></path>
        <path d="M349.73 -27.69L390.95 16.19" stroke="#132e65" stroke-width="1.5"></path>
        <path d="M346.82 14.79L346.82 14.79" stroke="#132e65" stroke-width="1.5"></path>
        <path d="M346.82 14.79L390.95 16.19" stroke="#132e65" stroke-width="1.5"></path>
        <path d="M346.82 14.79L392.27 -23.02" stroke="#132e65" stroke-width="1.5"></path>
        <path d="M358.78 123.85L358.78 123.85" stroke="#132e65" stroke-width="1.5"></path>
        <path d="M358.78 123.85L405.9 122.71" stroke="#132e65" stroke-width="1.5"></path>
        <path d="M392.27 -23.02L392.27 -23.02" stroke="#132e65" stroke-width="1.5"></path>
        <path d="M392.27 -23.02L390.95 16.19" stroke="#132e65" stroke-width="1.5"></path>
        <path d="M392.27 -23.02L455.97 -32.19" stroke="#132e65" stroke-width="1.5"></path>
        <path d="M392.27 -23.02L445.01 27.02" stroke="#132e65" stroke-width="1.5"></path>
        <path d="M390.95 16.19L390.95 16.19" stroke="#132e65" stroke-width="1.5"></path>
        <path d="M390.95 16.19L401.2 67.31" stroke="#132e65" stroke-width="1.5"></path>
        <path d="M390.95 16.19L445.01 27.02" stroke="#132e65" stroke-width="1.5"></path>
        <path d="M390.95 16.19L455.97 -32.19" stroke="#132e65" stroke-width="1.5"></path>
        <path d="M401.2 67.31L401.2 67.31" stroke="#132e65" stroke-width="1.5"></path>
        <path d="M401.2 67.31L450.38 89.4" stroke="#132e65" stroke-width="1.5"></path>
        <path d="M401.2 67.31L405.9 122.71" stroke="#132e65" stroke-width="1.5"></path>
        <path d="M401.2 67.31L445.01 27.02" stroke="#132e65" stroke-width="1.5"></path>
        <path d="M401.2 67.31L358.78 123.85" stroke="#132e65" stroke-width="1.5"></path>
        <path d="M405.9 122.71L405.9 122.71" stroke="#132e65" stroke-width="1.5"></path>
        <path d="M405.9 122.71L456.45 145.17" stroke="#132e65" stroke-width="1.5"></path>
        <path d="M455.97 -32.19L455.97 -32.19" stroke="#132e65" stroke-width="1.5"></path>
        <path d="M455.97 -32.19L445.01 27.02" stroke="#132e65" stroke-width="1.5"></path>
        <path d="M455.97 -32.19L349.73 -27.69" stroke="#132e65" stroke-width="1.5"></path>
        <path d="M455.97 -32.19L401.2 67.31" stroke="#132e65" stroke-width="1.5"></path>
        <path d="M445.01 27.02L445.01 27.02" stroke="#132e65" stroke-width="1.5"></path>
        <path d="M450.38 89.4L450.38 89.4" stroke="#132e65" stroke-width="1.5"></path>
        <path d="M450.38 89.4L405.9 122.71" stroke="#132e65" stroke-width="1.5"></path>
        <path d="M450.38 89.4L456.45 145.17" stroke="#132e65" stroke-width="1.5"></path>
        <path d="M456.45 145.17L456.45 145.17" stroke="#132e65" stroke-width="1.5"></path>
        <path d="M456.45 145.17L401.2 67.31" stroke="#132e65" stroke-width="1.5"></path>
        <path d="M456.45 145.17L358.78 123.85" stroke="#132e65" stroke-width="1.5"></path>
        <path d="M456.45 145.17L445.01 27.02" stroke="#132e65" stroke-width="1.5"></path>
        <path d="M456.45 145.17L390.95 16.19" stroke="#132e65" stroke-width="1.5"></path>
        <circle r="5" cx="-32.5" cy="86.73" fill="#132e65"></circle>
        <circle r="5" cx="-40.09" cy="139.82" fill="#132e65"></circle>
        <circle r="5" cx="32.07" cy="67.81" fill="#132e65"></circle>
        <circle r="5" cx="31.2" cy="133.85" fill="#132e65"></circle>
        <circle r="5" cx="68.81" cy="93.22" fill="#132e65"></circle>
        <circle r="5" cx="78.15" cy="136.09" fill="#132e65"></circle>
        <circle r="5" cx="133.12" cy="33.85" fill="#132e65"></circle>
        <circle r="5" cx="125.55" cy="93.88" fill="#132e65"></circle>
        <circle r="5" cx="128.64" cy="132.81" fill="#132e65"></circle>
        <circle r="5" cx="176.4" cy="69.28" fill="#132e65"></circle>
        <circle r="5" cx="180.75" cy="137.75" fill="#132e65"></circle>
        <circle r="5" cx="231.37" cy="37.52" fill="#132e65"></circle>
        <circle r="5" cx="236.02" cy="83.87" fill="#132e65"></circle>
        <circle r="5" cx="237.59" cy="124.92" fill="#132e65"></circle>
        <circle r="5" cx="285.15" cy="29.03" fill="#132e65"></circle>
        <circle r="5" cx="299.49" cy="90.19" fill="#132e65"></circle>
        <circle r="5" cx="294.3" cy="123.46" fill="#132e65"></circle>
        <circle r="5" cx="349.73" cy="-27.69" fill="#132e65"></circle>
        <circle r="5" cx="346.82" cy="14.79" fill="#132e65"></circle>
        <circle r="5" cx="358.78" cy="123.85" fill="#132e65"></circle>
        <circle r="5" cx="392.27" cy="-23.02" fill="#132e65"></circle>
        <circle r="5" cx="390.95" cy="16.19" fill="#132e65"></circle>
        <circle r="5" cx="401.2" cy="67.31" fill="#132e65"></circle>
        <circle r="5" cx="405.9" cy="122.71" fill="#132e65"></circle>
        <circle r="5" cx="455.97" cy="-32.19" fill="#132e65"></circle>
        <circle r="5" cx="445.01" cy="27.02" fill="#132e65"></circle>
        <circle r="5" cx="450.38" cy="89.4" fill="#132e65"></circle>
        <circle r="5" cx="456.45" cy="145.17" fill="#132e65"></circle>
        <path d="M181.49 67.56L181.49 67.56" stroke="hsl(228.5, 77.2%, 51.5%)" stroke-width="1.5"></path>
        <path d="M181.49 67.56L141.97 79.04" stroke="hsl(228.5, 77.2%, 51.5%)" stroke-width="1.5"></path>
        <path d="M181.49 67.56L228.78 93.63" stroke="hsl(228.5, 77.2%, 51.5%)" stroke-width="1.5"></path>
        <path d="M181.49 67.56L188.89 124.97" stroke="hsl(228.5, 77.2%, 51.5%)" stroke-width="1.5"></path>
        <path d="M181.49 67.56L236.3 129.85" stroke="hsl(228.5, 77.2%, 51.5%)" stroke-width="1.5"></path>
        <path d="M181.49 67.56L131.99 139.92" stroke="hsl(228.5, 77.2%, 51.5%)" stroke-width="1.5"></path>
        <path d="M181.49 67.56L92.2 69.73" stroke="hsl(228.5, 77.2%, 51.5%)" stroke-width="1.5"></path>
        <path d="M465.84 -33.03L465.84 -33.03" stroke="hsl(228.5, 77.2%, 51.5%)" stroke-width="1.5"></path>
        <path d="M465.84 -33.03L460.82 15.95" stroke="hsl(228.5, 77.2%, 51.5%)" stroke-width="1.5"></path>
        <path d="M465.84 -33.03L403.35 -32.63" stroke="hsl(228.5, 77.2%, 51.5%)" stroke-width="1.5"></path>
        <path d="M465.84 -33.03L406.46 68.04" stroke="hsl(228.5, 77.2%, 51.5%)" stroke-width="1.5"></path>
        <path d="M-28.65 82.02L-28.65 82.02" stroke="hsl(228.5, 77.2%, 51.5%)" stroke-width="1.5"></path>
        <path d="M-28.65 82.02L-35.68 146.21" stroke="hsl(228.5, 77.2%, 51.5%)" stroke-width="1.5"></path>
        <path d="M-28.65 82.02L38.13 75.22" stroke="hsl(228.5, 77.2%, 51.5%)" stroke-width="1.5"></path>
        <path d="M-28.65 82.02L34.1 142.27" stroke="hsl(228.5, 77.2%, 51.5%)" stroke-width="1.5"></path>
        <path d="M-28.65 82.02L79.14 131.83" stroke="hsl(228.5, 77.2%, 51.5%)" stroke-width="1.5"></path>
        <path d="M-28.65 82.02L92.2 69.73" stroke="hsl(228.5, 77.2%, 51.5%)" stroke-width="1.5"></path>
        <path d="M-28.65 82.02L141.97 79.04" stroke="hsl(228.5, 77.2%, 51.5%)" stroke-width="1.5"></path>
        <path d="M-35.68 146.21L-35.68 146.21" stroke="hsl(228.5, 77.2%, 51.5%)" stroke-width="1.5"></path>
        <path d="M-35.68 146.21L34.1 142.27" stroke="hsl(228.5, 77.2%, 51.5%)" stroke-width="1.5"></path>
        <path d="M-35.68 146.21L38.13 75.22" stroke="hsl(228.5, 77.2%, 51.5%)" stroke-width="1.5"></path>
        <path d="M-35.68 146.21L79.14 131.83" stroke="hsl(228.5, 77.2%, 51.5%)" stroke-width="1.5"></path>
        <path d="M-35.68 146.21L92.2 69.73" stroke="hsl(228.5, 77.2%, 51.5%)" stroke-width="1.5"></path>
        <path d="M-35.68 146.21L131.99 139.92" stroke="hsl(228.5, 77.2%, 51.5%)" stroke-width="1.5"></path>
        <path d="M38.13 75.22L38.13 75.22" stroke="hsl(228.5, 77.2%, 51.5%)" stroke-width="1.5"></path>
        <path d="M38.13 75.22L92.2 69.73" stroke="hsl(228.5, 77.2%, 51.5%)" stroke-width="1.5"></path>
        <path d="M34.1 142.27L34.1 142.27" stroke="hsl(228.5, 77.2%, 51.5%)" stroke-width="1.5"></path>
        <path d="M34.1 142.27L79.14 131.83" stroke="hsl(228.5, 77.2%, 51.5%)" stroke-width="1.5"></path>
        <path d="M34.1 142.27L38.13 75.22" stroke="hsl(228.5, 77.2%, 51.5%)" stroke-width="1.5"></path>
        <path d="M34.1 142.27L92.2 69.73" stroke="hsl(228.5, 77.2%, 51.5%)" stroke-width="1.5"></path>
        <path d="M34.1 142.27L131.99 139.92" stroke="hsl(228.5, 77.2%, 51.5%)" stroke-width="1.5"></path>
        <path d="M92.2 69.73L92.2 69.73" stroke="hsl(228.5, 77.2%, 51.5%)" stroke-width="1.5"></path>
        <path d="M92.2 69.73L141.97 79.04" stroke="hsl(228.5, 77.2%, 51.5%)" stroke-width="1.5"></path>
        <path d="M92.2 69.73L79.14 131.83" stroke="hsl(228.5, 77.2%, 51.5%)" stroke-width="1.5"></path>
        <path d="M92.2 69.73L131.99 139.92" stroke="hsl(228.5, 77.2%, 51.5%)" stroke-width="1.5"></path>
        <path d="M79.14 131.83L79.14 131.83" stroke="hsl(228.5, 77.2%, 51.5%)" stroke-width="1.5"></path>
        <path d="M79.14 131.83L131.99 139.92" stroke="hsl(228.5, 77.2%, 51.5%)" stroke-width="1.5"></path>
        <path d="M141.97 79.04L141.97 79.04" stroke="hsl(228.5, 77.2%, 51.5%)" stroke-width="1.5"></path>
        <path d="M141.97 79.04L131.99 139.92" stroke="hsl(228.5, 77.2%, 51.5%)" stroke-width="1.5"></path>
        <path d="M141.97 79.04L188.89 124.97" stroke="hsl(228.5, 77.2%, 51.5%)" stroke-width="1.5"></path>
        <path d="M141.97 79.04L79.14 131.83" stroke="hsl(228.5, 77.2%, 51.5%)" stroke-width="1.5"></path>
        <path d="M141.97 79.04L228.78 93.63" stroke="hsl(228.5, 77.2%, 51.5%)" stroke-width="1.5"></path>
        <path d="M131.99 139.92L131.99 139.92" stroke="hsl(228.5, 77.2%, 51.5%)" stroke-width="1.5"></path>
        <path d="M131.99 139.92L188.89 124.97" stroke="hsl(228.5, 77.2%, 51.5%)" stroke-width="1.5"></path>
        <path d="M188.89 124.97L188.89 124.97" stroke="hsl(228.5, 77.2%, 51.5%)" stroke-width="1.5"></path>
        <path d="M188.89 124.97L236.3 129.85" stroke="hsl(228.5, 77.2%, 51.5%)" stroke-width="1.5"></path>
        <path d="M188.89 124.97L228.78 93.63" stroke="hsl(228.5, 77.2%, 51.5%)" stroke-width="1.5"></path>
        <path d="M188.89 124.97L290.95 93.68" stroke="hsl(228.5, 77.2%, 51.5%)" stroke-width="1.5"></path>
        <path d="M228.78 93.63L228.78 93.63" stroke="hsl(228.5, 77.2%, 51.5%)" stroke-width="1.5"></path>
        <path d="M228.78 93.63L236.3 129.85" stroke="hsl(228.5, 77.2%, 51.5%)" stroke-width="1.5"></path>
        <path d="M228.78 93.63L290.95 93.68" stroke="hsl(228.5, 77.2%, 51.5%)" stroke-width="1.5"></path>
        <path d="M236.3 129.85L236.3 129.85" stroke="hsl(228.5, 77.2%, 51.5%)" stroke-width="1.5"></path>
        <path d="M236.3 129.85L290.95 93.68" stroke="hsl(228.5, 77.2%, 51.5%)" stroke-width="1.5"></path>
        <path d="M236.3 129.85L131.99 139.92" stroke="hsl(228.5, 77.2%, 51.5%)" stroke-width="1.5"></path>
        <path d="M236.3 129.85L141.97 79.04" stroke="hsl(228.5, 77.2%, 51.5%)" stroke-width="1.5"></path>
        <path d="M289.6 28.05L289.6 28.05" stroke="hsl(228.5, 77.2%, 51.5%)" stroke-width="1.5"></path>
        <path d="M289.6 28.05L290.95 93.68" stroke="hsl(228.5, 77.2%, 51.5%)" stroke-width="1.5"></path>
        <path d="M289.6 28.05L356.83 24.31" stroke="hsl(228.5, 77.2%, 51.5%)" stroke-width="1.5"></path>
        <path d="M289.6 28.05L343.03 78.65" stroke="hsl(228.5, 77.2%, 51.5%)" stroke-width="1.5"></path>
        <path d="M289.6 28.05L228.78 93.63" stroke="hsl(228.5, 77.2%, 51.5%)" stroke-width="1.5"></path>
        <path d="M289.6 28.05L236.3 129.85" stroke="hsl(228.5, 77.2%, 51.5%)" stroke-width="1.5"></path>
        <path d="M289.6 28.05L181.49 67.56" stroke="hsl(228.5, 77.2%, 51.5%)" stroke-width="1.5"></path>
        <path d="M290.95 93.68L290.95 93.68" stroke="hsl(228.5, 77.2%, 51.5%)" stroke-width="1.5"></path>
        <path d="M290.95 93.68L343.03 78.65" stroke="hsl(228.5, 77.2%, 51.5%)" stroke-width="1.5"></path>
        <path d="M356.83 24.31L356.83 24.31" stroke="hsl(228.5, 77.2%, 51.5%)" stroke-width="1.5"></path>
        <path d="M356.83 24.31L343.03 78.65" stroke="hsl(228.5, 77.2%, 51.5%)" stroke-width="1.5"></path>
        <path d="M356.83 24.31L406.46 68.04" stroke="hsl(228.5, 77.2%, 51.5%)" stroke-width="1.5"></path>
        <path d="M356.83 24.31L403.35 -32.63" stroke="hsl(228.5, 77.2%, 51.5%)" stroke-width="1.5"></path>
        <path d="M343.03 78.65L343.03 78.65" stroke="hsl(228.5, 77.2%, 51.5%)" stroke-width="1.5"></path>
        <path d="M343.03 78.65L343.5 136.35" stroke="hsl(228.5, 77.2%, 51.5%)" stroke-width="1.5"></path>
        <path d="M343.03 78.65L406.46 68.04" stroke="hsl(228.5, 77.2%, 51.5%)" stroke-width="1.5"></path>
        <path d="M343.5 136.35L343.5 136.35" stroke="hsl(228.5, 77.2%, 51.5%)" stroke-width="1.5"></path>
        <path d="M343.5 136.35L409.6 142.9" stroke="hsl(228.5, 77.2%, 51.5%)" stroke-width="1.5"></path>
        <path d="M343.5 136.35L290.95 93.68" stroke="hsl(228.5, 77.2%, 51.5%)" stroke-width="1.5"></path>
        <path d="M343.5 136.35L406.46 68.04" stroke="hsl(228.5, 77.2%, 51.5%)" stroke-width="1.5"></path>
        <path d="M343.5 136.35L236.3 129.85" stroke="hsl(228.5, 77.2%, 51.5%)" stroke-width="1.5"></path>
        <path d="M343.5 136.35L444.58 92.56" stroke="hsl(228.5, 77.2%, 51.5%)" stroke-width="1.5"></path>
        <path d="M403.35 -32.63L403.35 -32.63" stroke="hsl(228.5, 77.2%, 51.5%)" stroke-width="1.5"></path>
        <path d="M403.35 -32.63L460.82 15.95" stroke="hsl(228.5, 77.2%, 51.5%)" stroke-width="1.5"></path>
        <path d="M403.35 -32.63L406.46 68.04" stroke="hsl(228.5, 77.2%, 51.5%)" stroke-width="1.5"></path>
        <path d="M403.35 -32.63L343.03 78.65" stroke="hsl(228.5, 77.2%, 51.5%)" stroke-width="1.5"></path>
        <path d="M406.46 68.04L406.46 68.04" stroke="hsl(228.5, 77.2%, 51.5%)" stroke-width="1.5"></path>
        <path d="M406.46 68.04L444.58 92.56" stroke="hsl(228.5, 77.2%, 51.5%)" stroke-width="1.5"></path>
        <path d="M406.46 68.04L409.6 142.9" stroke="hsl(228.5, 77.2%, 51.5%)" stroke-width="1.5"></path>
        <path d="M406.46 68.04L460.82 15.95" stroke="hsl(228.5, 77.2%, 51.5%)" stroke-width="1.5"></path>
        <path d="M409.6 142.9L409.6 142.9" stroke="hsl(228.5, 77.2%, 51.5%)" stroke-width="1.5"></path>
        <path d="M409.6 142.9L464.54 133.43" stroke="hsl(228.5, 77.2%, 51.5%)" stroke-width="1.5"></path>
        <path d="M409.6 142.9L444.58 92.56" stroke="hsl(228.5, 77.2%, 51.5%)" stroke-width="1.5"></path>
        <path d="M460.82 15.95L460.82 15.95" stroke="hsl(228.5, 77.2%, 51.5%)" stroke-width="1.5"></path>
        <path d="M444.58 92.56L444.58 92.56" stroke="hsl(228.5, 77.2%, 51.5%)" stroke-width="1.5"></path>
        <path d="M444.58 92.56L464.54 133.43" stroke="hsl(228.5, 77.2%, 51.5%)" stroke-width="1.5"></path>
        <path d="M444.58 92.56L460.82 15.95" stroke="hsl(228.5, 77.2%, 51.5%)" stroke-width="1.5"></path>
        <path d="M444.58 92.56L343.03 78.65" stroke="hsl(228.5, 77.2%, 51.5%)" stroke-width="1.5"></path>
        <path d="M464.54 133.43L464.54 133.43" stroke="hsl(228.5, 77.2%, 51.5%)" stroke-width="1.5"></path>
        <path d="M464.54 133.43L406.46 68.04" stroke="hsl(228.5, 77.2%, 51.5%)" stroke-width="1.5"></path>
        <path d="M464.54 133.43L460.82 15.95" stroke="hsl(228.5, 77.2%, 51.5%)" stroke-width="1.5"></path>
        <path d="M464.54 133.43L343.5 136.35" stroke="hsl(228.5, 77.2%, 51.5%)" stroke-width="1.5"></path>
        <path d="M464.54 133.43L343.03 78.65" stroke="hsl(228.5, 77.2%, 51.5%)" stroke-width="1.5"></path>
        <circle r="25" cx="181.49" cy="67.56" fill="url(&quot;#SvgjsRadialGradient1091&quot;)"></circle>
        <circle r="25" cx="465.84" cy="-33.03" fill="url(&quot;#SvgjsRadialGradient1091&quot;)"></circle>
        <circle r="5" cx="-28.65" cy="82.02" fill="#8b9ad9"></circle>
        <circle r="5" cx="-35.68" cy="146.21" fill="#8b9ad9"></circle>
        <circle r="5" cx="38.13" cy="75.22" fill="#8b9ad9"></circle>
        <circle r="5" cx="34.1" cy="142.27" fill="#8b9ad9"></circle>
        <circle r="5" cx="92.2" cy="69.73" fill="#8b9ad9"></circle>
        <circle r="5" cx="79.14" cy="131.83" fill="#8b9ad9"></circle>
        <circle r="5" cx="141.97" cy="79.04" fill="#8b9ad9"></circle>
        <circle r="5" cx="131.99" cy="139.92" fill="#8b9ad9"></circle>
        <circle r="5" cx="188.89" cy="124.97" fill="#8b9ad9"></circle>
        <circle r="5" cx="228.78" cy="93.63" fill="#8b9ad9"></circle>
        <circle r="5" cx="236.3" cy="129.85" fill="#8b9ad9"></circle>
        <circle r="5" cx="289.6" cy="28.05" fill="#8b9ad9"></circle>
        <circle r="5" cx="290.95" cy="93.68" fill="#8b9ad9"></circle>
        <circle r="5" cx="356.83" cy="24.31" fill="#8b9ad9"></circle>
        <circle r="5" cx="343.03" cy="78.65" fill="#8b9ad9"></circle>
        <circle r="5" cx="343.5" cy="136.35" fill="#8b9ad9"></circle>
        <circle r="5" cx="403.35" cy="-32.63" fill="#8b9ad9"></circle>
        <circle r="5" cx="406.46" cy="68.04" fill="#8b9ad9"></circle>
        <circle r="5" cx="409.6" cy="142.9" fill="#8b9ad9"></circle>
        <circle r="5" cx="460.82" cy="15.95" fill="#8b9ad9"></circle>
        <circle r="5" cx="444.58" cy="92.56" fill="#8b9ad9"></circle>
        <circle r="5" cx="464.54" cy="133.43" fill="#8b9ad9"></circle>
    </g>
    <defs>
        <mask id="SvgjsMask1090">
            <rect width="430" height="64" fill="#ffffff"></rect>
        </mask>
        <radialGradient id="SvgjsRadialGradient1091">
            <stop stop-color="#ffffff" offset="0.1"></stop>
            <stop stop-color="#1735b3" offset="0.2"></stop>
            <stop stop-color="rgba(23, 53, 179, 0)" offset="1"></stop>
        </radialGradient>
    </defs>
</svg>