<svg xmlns="http://www.w3.org/2000/svg" version="1.1" xmlns:xlink="http://www.w3.org/1999/xlink" xmlns:svgjs="http://svgjs.dev/svgjs" width="500" height="1000" preserveAspectRatio="none" viewBox="0 0 500 1000">
    <g mask="url(&quot;#SvgjsMask1306&quot;)" fill="none">
        <rect width="500" height="1000" x="0" y="0" fill="rgba(10, 40, 72, 1)"></rect>
        <path d="M199.825,617.357C227.426,617.889,257.521,614.997,272.824,592.021C289.522,566.952,288.354,533.538,272.856,507.71C257.778,482.581,229.12,469.545,199.825,470.361C171.939,471.137,147.402,487.395,133.513,511.589C119.686,535.673,116.794,565.766,131.546,589.295C145.555,611.64,173.457,616.848,199.825,617.357" fill="rgba(12, 38, 98, 0.5)" class="triangle-float2"></path>
        <path d="M524.893,583.208C570.471,584.27,616.439,569.212,641.344,531.026C668.592,489.247,673.413,435.613,649.815,391.669C624.967,345.398,577.406,315.095,524.893,314.171C470.775,313.219,416.615,338.871,392.119,387.136C369.325,432.047,389.241,484.106,417.48,525.808C441.877,561.836,481.394,582.194,524.893,583.208" fill="rgba(12, 38, 98, 0.5)" class="triangle-float3"></path>
        <path d="M395.226,496.852C438.343,496.822,476.14,473.392,500.476,437.799C529.139,395.878,553.904,343.995,530.586,298.882C505.974,251.266,448.747,231.242,395.226,234.174C346.515,236.842,305.755,269.105,283.325,312.427C262.68,352.301,266.43,399.556,289.722,437.944C312.116,474.852,352.056,496.882,395.226,496.852" fill="rgba(12, 38, 98, 0.5)" class="triangle-float2"></path>
        <path d="M380.448,148.856C407.559,149.847,439.449,149.758,452.928,126.215C466.365,102.745,450.298,75.227,435.599,52.527C422.566,32.4,404.409,15.189,380.448,14.282C354.962,13.317,330.632,26.16,317.559,48.059C304.158,70.507,302.763,99.049,316.602,121.23C329.758,142.316,355.611,147.948,380.448,148.856" fill="rgba(12, 38, 98, 0.5)" class="triangle-float2"></path>
        <path d="M388.749,852.444C401.791,852.814,414.218,846.104,420.717,834.791C427.193,823.518,425.85,809.915,419.791,798.412C413.226,785.949,402.814,774.875,388.749,774.101C373.472,773.261,357.917,780.906,351.169,794.637C344.964,807.263,352.106,821.268,359.774,833.063C366.562,843.505,376.3,852.091,388.749,852.444" fill="rgba(12, 38, 98, 0.5)" class="triangle-float1"></path>
        <path d="M314.867,168.773C328.436,168.883,344.748,170.452,351.478,158.669C358.184,146.927,348.737,133.576,341.49,122.16C334.978,111.902,327.006,101.515,314.867,101C301.988,100.454,290.844,108.786,284.023,119.724C276.715,131.442,271.916,146.394,279.267,158.085C286.336,169.327,301.587,168.666,314.867,168.773" fill="rgba(12, 38, 98, 0.5)" class="triangle-float3"></path>
        <path d="M168.049,908.462C220.087,912.182,268.378,880.409,294.348,835.161C320.204,790.112,322.826,732.693,293.568,689.775C267.065,650.898,215.096,649.231,168.049,649.896C122.633,650.538,71.377,653.982,48.531,693.239C25.601,732.64,47.452,779.237,69.584,819.092C92.648,860.625,120.663,905.074,168.049,908.462" fill="rgba(12, 38, 98, 0.5)" class="triangle-float3"></path>
        <path d="M93.889,193.315C135.932,193.741,169.077,162.8,191.103,126.986C214.514,88.92,233.276,41.986,210.665,3.439C188.221,-34.823,138.247,-39.098,93.889,-38.745C50.364,-38.399,1.928,-32.494,-19.713,5.271C-41.276,42.9,-22.4,87.929,0.026,125.051C21.467,160.542,52.426,192.895,93.889,193.315" fill="rgba(12, 38, 98, 0.5)" class="triangle-float1"></path>
        <path d="M412.414,912.133C444.927,910.685,471.594,888.896,487.445,860.472C502.84,832.866,504.286,800.511,490.535,772.05C474.552,738.969,449.13,706.491,412.414,705.173C374.064,703.796,342.133,732.284,323.932,766.068C306.708,798.038,306.029,836.65,324.845,867.711C343.021,897.716,377.368,913.693,412.414,912.133" fill="rgba(12, 38, 98, 0.5)" class="triangle-float2"></path>
        <path d="M6.259,525.163C19.108,524.574,29.397,515.411,35.414,504.043C41.02,493.453,41.165,480.893,35.191,470.506C29.2,460.089,18.272,453.651,6.259,453.349C-6.322,453.033,-18.54,458.375,-25.307,468.986C-32.617,480.447,-34.584,495.095,-27.925,506.946C-21.146,519.01,-7.564,525.797,6.259,525.163" fill="rgba(12, 38, 98, 0.5)" class="triangle-float1"></path>
    </g>
    <defs>
        <mask id="SvgjsMask1306">
            <rect width="500" height="1000" fill="#ffffff"></rect>
        </mask>
        <style>
            @keyframes float1 {
                    0%{transform: translate(0, 0)}
                    50%{transform: translate(-10px, 0)}
                    100%{transform: translate(0, 0)}
                }

                .triangle-float1 {
                    animation: float1 5s infinite;
                }

                @keyframes float2 {
                    0%{transform: translate(0, 0)}
                    50%{transform: translate(-5px, -5px)}
                    100%{transform: translate(0, 0)}
                }

                .triangle-float2 {
                    animation: float2 4s infinite;
                }

                @keyframes float3 {
                    0%{transform: translate(0, 0)}
                    50%{transform: translate(0, -10px)}
                    100%{transform: translate(0, 0)}
                }

                .triangle-float3 {
                    animation: float3 6s infinite;
                }
        </style>
    </defs>
</svg>