<svg xmlns="http://www.w3.org/2000/svg" version="1.1" xmlns:xlink="http://www.w3.org/1999/xlink" xmlns:svgjs="http://svgjs.dev/svgjs" width="430" height="56" preserveAspectRatio="none" viewBox="0 0 430 56">
    <g mask="url(&quot;#SvgjsMask1026&quot;)" fill="none">
        <rect width="430" height="56" x="0" y="0" fill="rgba(11, 60, 111, 1)"></rect>
        <path d="M 0,12 C 9.6,13.2 28.8,19.4 48,18 C 67.2,16.6 76.8,4.2 96,5 C 115.2,5.8 124.8,21.4 144,22 C 163.2,22.6 172.8,6.8 192,8 C 211.2,9.2 220.8,27.6 240,28 C 259.2,28.4 268.8,10.4 288,10 C 307.2,9.6 316.8,26 336,26 C 355.2,26 365.2,11.4 384,10 C 402.8,8.6 420.8,17.2 430,19L430 56L0 56z" fill="#184a7e"></path>
        <path d="M 0,43 C 6.8,42.4 20.4,38 34,40 C 47.6,42 54.4,54.2 68,53 C 81.6,51.8 88.4,35.4 102,34 C 115.6,32.6 122.4,44.6 136,46 C 149.6,47.4 156.4,40.8 170,41 C 183.6,41.2 190.4,49.6 204,47 C 217.6,44.4 224.4,26.2 238,28 C 251.6,29.8 258.4,55.8 272,56 C 285.6,56.2 292.4,29.2 306,29 C 319.6,28.8 326.4,54.2 340,55 C 353.6,55.8 360.4,34 374,33 C 387.6,32 396.8,49.2 408,50 C 419.2,50.8 425.6,39.6 430,37L430 56L0 56z" fill="#2264ab"></path>
    </g>
    <defs>
        <mask id="SvgjsMask1026">
            <rect width="430" height="56" fill="#ffffff"></rect>
        </mask>
    </defs>
</svg>