<svg xmlns="http://www.w3.org/2000/svg" version="1.1" xmlns:xlink="http://www.w3.org/1999/xlink" xmlns:svgjs="http://svgjs.dev/svgjs" width="1440" height="560" preserveAspectRatio="none" viewBox="0 0 1440 560">
    <g mask="url(&quot;#SvgjsMask1050&quot;)" fill="none">
        <rect width="1440" height="560" x="0" y="0" fill="rgba(14, 42, 71, 0.85)"></rect>
        <path d="M -658.5905571716903,65 C -586.59,160.6 -442.59,549.6 -298.59055717169025,543 C -154.59,536.4 -82.59,65.6 61.40944282830975,32 C 205.41,-1.6 277.41,334.4 421.40944282830975,375 C 565.41,415.6 637.41,198.8 781.4094428283097,235 C 925.41,271.2 1009.69,585.8 1141.4094428283097,556 C 1273.13,526.2 1380.28,180 1440,86" stroke="rgba(3, 72, 144, 0.8)" stroke-width="2"></path>
        <path d="M -69.16176507572345,555 C 2.84,467.4 146.84,160.8 290.83823492427655,117 C 434.84,73.2 506.84,336.6 650.8382349242765,336 C 794.84,335.4 866.84,123.2 1010.8382349242765,114 C 1154.84,104.8 1226.84,289.4 1370.8382349242765,290 C 1514.84,290.6 1717.01,107.4 1730.8382349242765,117 C 1744.67,126.6 1498.17,293.8 1440,338" stroke="rgba(3, 72, 144, 0.8)" stroke-width="2"></path>
        <path d="M -511.5453180298779,495 C -439.55,418.4 -295.55,124.2 -151.54531802987788,112 C -7.55,99.8 64.45,444.6 208.45468197012212,434 C 352.45,423.4 424.45,52 568.4546819701221,59 C 712.45,66 784.45,473 928.4546819701221,469 C 1072.45,465 1186.15,35 1288.4546819701222,39 C 1390.76,43 1409.69,399 1440,489" stroke="rgba(3, 72, 144, 0.8)" stroke-width="2"></path>
        <path d="M -239.58674883407582,455 C -167.59,364.8 -23.59,13.8 120.41325116592418,4 C 264.41,-5.8 336.41,373.2 480.4132511659242,406 C 624.41,438.8 696.41,178.6 840.4132511659242,168 C 984.41,157.4 1056.41,354.2 1200.413251165924,353 C 1344.41,351.8 1512.5,151.8 1560.413251165924,162 C 1608.33,172.2 1464.08,355.6 1440,404" stroke="rgba(3, 72, 144, 0.8)" stroke-width="2"></path>
        <path d="M -424.0769390169782,262 C -352.08,292.8 -208.08,424.2 -64.0769390169782,416 C 79.92,407.8 151.92,195 295.9230609830218,221 C 439.92,247 511.92,581 655.9230609830217,546 C 799.92,511 871.92,56.2 1015.9230609830217,46 C 1159.92,35.8 1291.11,472.2 1375.9230609830217,495 C 1460.74,517.8 1427.18,227 1440,160" stroke="rgba(3, 72, 144, 0.8)" stroke-width="2"></path>
        <path d="M -649.7529583997882,63 C -577.75,158.6 -433.75,503.8 -289.75295839978816,541 C -145.75,578.2 -73.75,284.6 70.24704160021184,249 C 214.25,213.4 286.25,398.2 430.24704160021184,363 C 574.25,327.8 646.25,44.4 790.2470416002118,73 C 934.25,101.6 1020.3,484.2 1150.2470416002118,506 C 1280.2,527.8 1382.05,246.8 1440,182" stroke="rgba(3, 72, 144, 0.8)" stroke-width="2"></path>
    </g>
    <defs>
        <mask id="SvgjsMask1050">
            <rect width="1440" height="560" fill="#ffffff"></rect>
        </mask>
    </defs>
</svg>