<svg xmlns="http://www.w3.org/2000/svg" version="1.1" xmlns:xlink="http://www.w3.org/1999/xlink" xmlns:svgjs="http://svgjs.dev/svgjs" width="626" height="1094" preserveAspectRatio="none" viewBox="0 0 626 1094">
    <g mask="url(&quot;#SvgjsMask1024&quot;)" fill="none">
        <rect width="626" height="1094" x="0" y="0" fill="rgba(10, 40, 72, 1)"></rect>
        <path d="M115.601,627.29C147.467,626.869,174.405,605.543,189.656,577.56C204.226,550.827,205.914,517.757,189.149,492.343C173.733,468.974,143.595,465.592,115.601,465.302C86.885,465.004,55.489,467.025,39.366,490.79C21.558,517.037,22.615,551.87,38.081,579.562C53.94,607.957,83.08,627.719,115.601,627.29" fill="rgba(12, 51, 140, 0.5)" class="triangle-float1"></path>
        <path d="M36.45,915.152C70.316,917.583,104.787,905.1,123.345,876.668C143.645,845.568,149.514,804.049,129.31,772.887C110.329,743.611,71.313,741.237,36.45,742.643C4.712,743.923,-28.962,752.063,-44.281,779.889C-59.216,807.016,-47.099,838.984,-31.229,865.574C-15.868,891.311,6.554,913.006,36.45,915.152" fill="rgba(12, 51, 140, 0.5)" class="triangle-float2"></path>
        <path d="M19.806,580.986C41.078,580.647,60.272,569.149,71.188,550.888C82.415,532.107,85.913,508.309,74.363,489.724C63.304,471.929,40.752,467.692,19.806,468.209C-0.045,468.699,-19.533,475.607,-30.28,492.305C-41.961,510.454,-45.104,533.777,-34.49,552.57C-23.723,571.634,-2.085,581.335,19.806,580.986" fill="rgba(12, 51, 140, 0.5)" class="triangle-float2"></path>
        <path d="M52.57,499.003C67.281,498.339,78.982,488.406,86.67,475.846C94.799,462.565,100.947,446.208,93.128,432.743C85.331,419.316,68.097,417.133,52.57,417.122C37.016,417.111,20.319,419.599,11.91,432.684C2.927,446.662,4.001,465.02,12.686,479.186C21.002,492.751,36.675,499.721,52.57,499.003" fill="rgba(12, 51, 140, 0.5)" class="triangle-float2"></path>
        <path d="M106.064,837.091C137.69,837.627,171.008,832.012,188.945,805.959C209.251,776.464,215.642,736.146,196.318,705.999C178.021,677.454,139.943,675.312,106.064,676.656C75.18,677.882,43.657,686.402,27.419,712.701C10.428,740.22,10.629,775.891,27.913,803.228C44.174,828.948,75.639,836.575,106.064,837.091" fill="rgba(12, 51, 140, 0.5)" class="triangle-float2"></path>
        <path d="M526.482,1211.586C579.311,1208.776,627.223,1179.967,652.192,1133.326C675.855,1089.124,667.944,1036.964,643.357,993.27C618.207,948.575,577.665,913.156,526.482,909.923C469.372,906.315,411.566,928.383,380.889,976.689C348.049,1028.401,342.982,1095.991,375.254,1148.059C406.127,1197.869,467.963,1214.699,526.482,1211.586" fill="rgba(12, 51, 140, 0.5)" class="triangle-float1"></path>
        <path d="M222.241,180.488C237.962,180.635,254.219,176.929,262.995,163.885C272.794,149.32,275.878,129.637,266.392,114.865C257.424,100.9,238.829,99.89,222.241,100.421C206.864,100.913,190.923,104.522,182.73,117.544C174.056,131.331,174.125,149.34,182.785,163.136C190.972,176.178,206.843,180.344,222.241,180.488" fill="rgba(12, 51, 140, 0.5)" class="triangle-float1"></path>
        <path d="M682.65,848.248C730.105,846.107,775.591,829.692,802.408,790.483C833.426,745.132,851.778,687.095,826.09,638.526C799.094,587.483,740.357,562.047,682.65,564.047C628.254,565.933,583.052,600.99,555.46,647.907C527.418,695.589,512.937,755.506,542.586,802.206C570.818,846.675,630.03,850.622,682.65,848.248" fill="rgba(12, 51, 140, 0.5)" class="triangle-float1"></path>
        <path d="M265.289,453.486C300.885,453.609,336.847,443.181,356.568,413.547C378.509,380.576,386.243,336.723,365.403,303.046C345.337,270.621,303.338,263.534,265.289,266.044C231.999,268.24,203.164,286.471,185.706,314.9C167.273,344.917,157.55,382.376,175.091,412.923C192.686,443.563,229.956,453.364,265.289,453.486" fill="rgba(12, 51, 140, 0.5)" class="triangle-float3"></path>
        <path d="M202.766,262.142C256.635,264.907,310.387,236.749,334.592,188.545C356.984,143.953,332.853,94.938,308.633,51.313C283.353,5.78,254.843,-48.344,202.766,-48.898C150.198,-49.457,116.063,1.813,92.924,49.018C72.937,89.792,71.662,135.754,92.465,176.118C115.359,220.539,152.858,259.58,202.766,262.142" fill="rgba(12, 51, 140, 0.5)" class="triangle-float2"></path>
        <path d="M177.754,693.429C198.078,693.475,218.061,685.428,228.697,668.109C239.819,649.998,240.28,627.138,229.827,608.633C219.205,589.828,199.35,578.183,177.754,577.922C155.691,577.655,134.264,588.112,123.455,607.348C112.841,626.238,115.647,649.554,127.207,667.881C138.003,684.996,157.519,693.383,177.754,693.429" fill="rgba(12, 51, 140, 0.5)" class="triangle-float3"></path>
        <path d="M454.091,517.698C493.618,516.193,514.381,474.871,532.869,439.901C549.696,408.073,565.478,371.677,547.903,340.256C530.034,308.309,490.678,297.927,454.091,299.061C419.69,300.127,387.769,316.397,369.835,345.773C351.088,376.482,348.357,414.015,364.19,446.323C382.237,483.149,413.111,519.258,454.091,517.698" fill="rgba(12, 51, 140, 0.5)" class="triangle-float1"></path>
        <path d="M487.542,384.575C531.436,384.135,570.274,361.619,595.305,325.559C625.247,282.424,652.7,228.586,627.978,182.261C602.38,134.294,541.858,121.207,487.542,123.627C437.816,125.843,391.102,150.202,367.229,193.879C344.24,235.938,350.392,287.221,375.968,327.759C399.837,365.591,442.812,385.024,487.542,384.575" fill="rgba(12, 51, 140, 0.5)" class="triangle-float2"></path>
    </g>
    <defs>
        <mask id="SvgjsMask1024">
            <rect width="626" height="1094" fill="#ffffff"></rect>
        </mask>
        <style>
            @keyframes float1 {
                    0%{transform: translate(0, 0)}
                    50%{transform: translate(-500px, 0)}
                    100%{transform: translate(0, 0)}
                }

                .triangle-float1 {
                    animation: float1 25s infinite;
                }

                @keyframes float2 {
                    0%{transform: translate(0, 0)}
                    50%{transform: translate(-250px, -250px)}
                    100%{transform: translate(0, 0)}
                }

                .triangle-float2 {
                    animation: float2 20s infinite;
                }

                @keyframes float3 {
                    0%{transform: translate(0, 0)}
                    50%{transform: translate(0, -500px)}
                    100%{transform: translate(0, 0)}
                }

                .triangle-float3 {
                    animation: float3 30s infinite;
                }
        </style>
    </defs>
</svg>
