<svg xmlns="http://www.w3.org/2000/svg" version="1.1" xmlns:xlink="http://www.w3.org/1999/xlink" xmlns:svgjs="http://svgjs.dev/svgjs" width="1440" height="560" preserveAspectRatio="none" viewBox="0 0 1440 560">
    <g mask="url(&quot;#SvgjsMask1207&quot;)" fill="none">
        <rect width="1440" height="560" x="0" y="0" fill="url(&quot;#SvgjsLinearGradient1208&quot;)"></rect>
        <path d="M1440 0L900.34 0L1440 237.98z" fill="rgba(255, 255, 255, .1)"></path>
        <path d="M900.34 0L1440 237.98L1440 281.34999999999997L761.44 0z" fill="rgba(255, 255, 255, .075)"></path>
        <path d="M761.44 0L1440 281.34999999999997L1440 339.76L685.1500000000001 0z" fill="rgba(255, 255, 255, .05)"></path>
        <path d="M685.1500000000001 0L1440 339.76L1440 453.64L219.0800000000001 0z" fill="rgba(255, 255, 255, .025)"></path>
        <path d="M0 560L64.16 560L0 416z" fill="rgba(0, 0, 0, .1)"></path>
        <path d="M0 416L64.16 560L689.8 560L0 311.44z" fill="rgba(0, 0, 0, .075)"></path>
        <path d="M0 311.44L689.8 560L758.51 560L0 166.03z" fill="rgba(0, 0, 0, .05)"></path>
        <path d="M0 166.02999999999997L758.51 560L977.94 560L0 91.78999999999998z" fill="rgba(0, 0, 0, .025)"></path>
    </g>
    <defs>
        <mask id="SvgjsMask1207">
            <rect width="1440" height="560" fill="#ffffff"></rect>
        </mask>
        <linearGradient x1="84.72%" y1="139.29%" x2="15.28%" y2="-39.29%" gradientUnits="userSpaceOnUse" id="SvgjsLinearGradient1208">
            <stop stop-color="#0e2a47" offset="0"></stop>
            <stop stop-color="rgba(5, 81, 151, 1)" offset="1"></stop>
        </linearGradient>
    </defs>
</svg>