<svg xmlns="http://www.w3.org/2000/svg" version="1.1" xmlns:xlink="http://www.w3.org/1999/xlink" xmlns:svgjs="http://svgjs.dev/svgjs" width="626" height="1094" preserveAspectRatio="none" viewBox="0 0 626 1094">
    <g mask="url(&quot;#SvgjsMask1550&quot;)" fill="none">
        <rect width="626" height="1094" x="0" y="0" fill="rgba(10, 40, 72, 1)"></rect>
        <path d="M306.652,830.785C351.06,832.594,402.516,832.382,425.618,794.413C449.245,755.582,427.433,708.477,405.189,668.838C382.273,628.001,353.464,583.61,306.652,582.409C258.492,581.173,220.798,620.609,198.947,663.545C179.195,702.357,179.786,748.748,203.365,785.361C225.192,819.253,266.373,829.144,306.652,830.785" fill="rgba(12, 38, 98, 0.5)" class="triangle-float1"></path>
        <path d="M-12.472,753.908C7.288,753.458,27.77,749.883,38.995,733.615C51.799,715.059,57.041,689.771,44.884,670.785C33.328,652.739,8.951,652.748,-12.472,653.239C-32.707,653.703,-54.154,656.519,-65.449,673.314C-77.969,691.932,-80.488,717.306,-68.164,736.054C-56.687,753.514,-33.361,754.383,-12.472,753.908" fill="rgba(12, 38, 98, 0.5)" class="triangle-float3"></path>
        <path d="M322.077,1118.989C358.684,1118.188,396.685,1110.216,416.666,1079.532C438.372,1046.198,441.396,1001.931,420.237,968.248C400.144,936.262,359.805,927.084,322.077,928.957C287.936,930.652,258.27,948.679,239.464,977.224C218.165,1009.552,200.548,1050.383,220.04,1083.832C239.454,1117.146,283.528,1119.832,322.077,1118.989" fill="rgba(12, 38, 98, 0.5)" class="triangle-float2"></path>
        <path d="M439.084,1048.42C491.723,1049.247,550.198,1040.82,576.498,995.215C602.784,949.635,579,895.84,553.674,849.72C526.977,801.104,494.478,747.773,439.084,744.983C380.333,742.024,330.096,785.076,302.592,837.075C276.856,885.731,279.089,944.773,308.951,991.011C336.519,1033.698,388.275,1047.622,439.084,1048.42" fill="rgba(12, 38, 98, 0.5)" class="triangle-float3"></path>
        <path d="M647.662,1086.289C697.258,1087.904,745.628,1065.232,771.126,1022.662C797.303,978.958,799.511,922.406,771.179,880.067C745.263,841.339,694.261,838.23,647.662,838.16C600.888,838.09,548.25,840.005,523.504,879.697C497.786,920.948,512.339,973.386,537.379,1015.052C561.54,1055.255,600.782,1084.763,647.662,1086.289" fill="rgba(12, 38, 98, 0.5)" class="triangle-float2"></path>
        <path d="M675.85,887.761C736.007,886.417,801.589,878.245,832.87,826.843C865.074,773.925,849.455,707.484,818.057,654.084C787.159,601.534,736.774,557.682,675.85,559.791C617.578,561.808,580.397,613.781,549.73,663.372C516.615,716.921,475.342,779.254,506.191,834.14C537.337,889.555,612.298,889.181,675.85,887.761" fill="rgba(12, 38, 98, 0.5)" class="triangle-float2"></path>
        <path d="M92.13,496.297C127.102,497.885,161.473,482.574,179.956,452.843C199.475,421.445,203.341,380.578,183.44,349.42C164.697,320.075,126.913,313.735,92.13,315.34C60.599,316.795,30.105,329.879,14.339,357.224C-1.412,384.543,1.721,417.925,17.116,445.447C32.922,473.704,59.786,494.828,92.13,496.297" fill="rgba(12, 38, 98, 0.5)" class="triangle-float2"></path>
        <path d="M66.448,382.022C93.106,380.134,109.031,355.584,122.528,332.518C136.226,309.108,152.588,281.724,138.803,258.366C125.129,235.196,93.346,236.921,66.448,237.495C40.98,238.039,13.712,240.372,-0.749,261.344C-17.047,284.98,-19.286,316.492,-5.319,341.575C8.999,367.288,37.091,384.102,66.448,382.022" fill="rgba(12, 38, 98, 0.5)" class="triangle-float3"></path>
        <path d="M85.76,888.113C106.418,888.583,122.505,872.584,133.048,854.813C143.865,836.58,150.867,814.4,140.447,795.937C129.895,777.239,107.224,770.495,85.76,771.023C65.311,771.526,45.184,780.477,35.538,798.515C26.336,815.722,32.516,835.721,42.057,852.742C51.878,870.263,65.679,887.656,85.76,888.113" fill="rgba(12, 38, 98, 0.5)" class="triangle-float3"></path>
        <path d="M150.398,271.037C205.682,267.952,241.567,218.53,267.648,169.687C291.822,124.416,306.469,71.145,280.893,26.651C255.25,-17.959,201.842,-33.233,150.398,-34.289C96.581,-35.394,39.663,-24.005,10.278,21.094C-21.531,69.913,-20.438,133.348,8.055,184.174C37.188,236.14,90.916,274.357,150.398,271.037" fill="rgba(12, 38, 98, 0.5)" class="triangle-float1"></path>
        <path d="M606.541,587.15C644.036,589.073,674.651,560.059,692.875,527.235C710.508,495.475,714.051,457.264,696.226,425.611C678.08,393.388,643.462,371.827,606.541,373.928C572.452,375.867,548.158,404.332,532.946,434.9C519.541,461.836,521.199,492.015,534.293,519.103C549.725,551.027,571.13,585.334,606.541,587.15" fill="rgba(12, 38, 98, 0.5)" class="triangle-float2"></path>
        <path d="M431.282,758.679C453.049,758.822,473.683,748.342,484.854,729.66C496.323,710.48,498.694,685.533,486.028,667.122C474.516,650.388,451.553,650.506,431.282,651.788C413.83,652.892,397.166,658.894,387.347,673.364C376.066,689.989,369.718,711.102,378.916,728.964C388.764,748.088,409.771,758.538,431.282,758.679" fill="rgba(12, 38, 98, 0.5)" class="triangle-float1"></path>
        <path d="M541.176,548.439C606.171,551.38,674.745,530.447,707.472,474.217C740.353,417.723,723.771,348.257,690.398,292.053C657.845,237.23,604.836,190.591,541.176,194.157C481.609,197.494,446.456,254.668,418.349,307.292C392.398,355.88,374.049,411.179,399.05,460.263C426.171,513.509,481.482,545.738,541.176,548.439" fill="rgba(12, 38, 98, 0.5)" class="triangle-float2"></path>
    </g>
    <defs>
        <mask id="SvgjsMask1550">
            <rect width="626" height="1094" fill="#ffffff"></rect>
        </mask>
        <style>
            @keyframes float1 {
                    0%{transform: translate(0, 0)}
                    50%{transform: translate(-500px, 0)}
                    100%{transform: translate(0, 0)}
                }

                .triangle-float1 {
                    animation: float1 25s infinite;
                }

                @keyframes float2 {
                    0%{transform: translate(0, 0)}
                    50%{transform: translate(-250px, -250px)}
                    100%{transform: translate(0, 0)}
                }

                .triangle-float2 {
                    animation: float2 20s infinite;
                }

                @keyframes float3 {
                    0%{transform: translate(0, 0)}
                    50%{transform: translate(0, -500px)}
                    100%{transform: translate(0, 0)}
                }

                .triangle-float3 {
                    animation: float3 30s infinite;
                }
        </style>
    </defs>
</svg>
